# xmcd CD database file
#
# Track frame offsets:
#	150
#	16735
#	32557
#	50365
#	61255
#	76842
#	89780
#	105922
#	120415
#	138080
#	152517
#	165540
#
# Disc length: 2401 seconds
#
# Revision: 0
# Processed by: cddbd v1.5.1PL0 Copyright (c) Steve Scherf et al.
# Submitted via: CDex 1.51
#
DISCID=7f095f0c
DTITLE=AISCHZEIT - SHOW BAND
DYEAR=1900
DGENRE=Jazz
TTITLE0=WENN EIN STERN AUF DIE ERDE FÄLLG
TTITLE1=HANT'IDR'NMLLEGESTÜTZ
TTITLE2=WENN DER BERG RUFT
TTITLE3=I TRAU MI NET
TTITLE4=ROCK'N ROLL AM BERG DROB'N
TTITLE5=DER MANDY MIT SEL'M HANDY
TTITLE6=UND IN SAKADA GEHT DIE SONNE AUF
TTITLE7=VOLLGAS
TTITLE8=SAG WLEDER EINMALL DANKE
TTITLE9=COUNTRYMUSIC
TTITLE10=EIN WUNDER IST GESHEH'N
TTITLE11=MORGENTAU
EXTD=
EXTT0=
EXTT1=
EXTT2=
EXTT3=
EXTT4=
EXTT5=
EXTT6=
EXTT7=
EXTT8=
EXTT9=
EXTT10=
EXTT11=
PLAYORDER=
